<svg width="24" height="24" viewBox="0 0 24 24" fill="none" xmlns="http://www.w3.org/2000/svg">
<path d="M7.01266 20V17.7015H14.0819C15.097 17.7015 15.9784 17.3613 16.7262 16.681C17.4741 16.0006 17.848 15.147 17.848 14.1201C17.848 13.0932 17.4741 12.2396 16.7262 11.5592C15.9784 10.8789 15.097 10.5387 14.0819 10.5387H8.105L10.5698 13.1713L9.0521 14.779L4 9.38949L9.0521 4L10.5698 5.62103L8.105 8.24025H14.0819C15.6943 8.24025 17.0837 8.80083 18.2502 9.922C19.4167 11.0432 20 12.4425 20 14.1201C20 15.7977 19.4167 17.1971 18.2502 18.3182C17.0837 19.4394 15.6936 20 14.0798 20H7.01266Z" fill="#F0F2F9"/>
</svg>
