<svg width="37" height="41" viewBox="0 0 37 41" fill="none" xmlns="http://www.w3.org/2000/svg">
<g clip-path="url(#clip0_503_442)">
<path d="M18.2984 40.9595L0 30.8059L0.804019 30.1272L17.7993 39.4935L17.8825 20.5708L0.235661 10.6751C0.192619 10.6435 0.157685 10.6025 0.133624 10.5554C0.109563 10.5083 0.0970367 10.4563 0.0970367 10.4036C0.0970367 10.351 0.109563 10.299 0.133624 10.2519C0.157685 10.2048 0.192619 10.1638 0.235661 10.1322L18.1181 0.0599818C18.1776 0.0208816 18.2475 0 18.3191 0C18.3907 0 18.4607 0.0208816 18.5202 0.0599818L36.6383 10.2408L35.5709 10.7837L18.3261 1.28167L1.91301 10.4444L18.7835 19.8378C18.8448 19.8771 18.894 19.9319 18.9257 19.9965C18.9575 20.0611 18.9706 20.133 18.9637 20.2043V40.6338C18.9453 40.7001 18.9127 40.7619 18.8682 40.815C18.8237 40.8682 18.7682 40.9116 18.7054 40.9423C18.6426 40.9731 18.5739 40.9905 18.5038 40.9935C18.4336 40.9964 18.3636 40.9849 18.2984 40.9595Z" fill="white"/>
<path d="M20.0039 20.6927V29.4482L27.9886 25.2266V16.2539L20.0039 20.6927Z" fill="white"/>
<path d="M29.0279 15.548L28.9863 24.6428L36.472 20.4483L36.4997 11.4893L29.0279 15.548Z" fill="white"/>
<path d="M20.0039 30.6022V39.4934L27.9886 35.0546V26.3398L20.0039 30.6022Z" fill="white"/>
<path d="M28.9863 25.7966V34.4435L36.472 30.2626V21.6836L28.9863 25.7966Z" fill="white"/>
<path opacity="0.44" d="M18.9083 40.6335C18.8995 40.6993 18.875 40.7621 18.8367 40.8168C18.7984 40.8715 18.7474 40.9166 18.688 40.9484C18.6285 40.9801 18.5622 40.9977 18.4945 40.9996C18.4268 41.0015 18.3596 40.9877 18.2984 40.9593L0 30.8057" fill="white"/>
<path d="M20.211 6.26376C19.8071 6.06339 19.3607 5.95898 18.9079 5.95898C18.4552 5.95898 18.0087 6.06339 17.6049 6.26376C16.8979 6.67099 16.9256 7.33613 17.6049 7.74336C18.0063 7.94361 18.4505 8.04799 18.901 8.04799C19.3515 8.04799 19.7957 7.94361 20.1971 7.74336C20.918 7.33613 20.8902 6.68456 20.1971 6.27733" fill="#F0F2F9"/>
<path d="M26.7399 9.95614C26.336 9.75578 25.8896 9.65137 25.4369 9.65137C24.9841 9.65137 24.5377 9.75578 24.1338 9.95614C23.4407 10.3634 23.4545 11.0285 24.1338 11.4357C24.5377 11.6361 24.9841 11.7405 25.4369 11.7405C25.8896 11.7405 26.336 11.6361 26.7399 11.4357C27.4469 11.0285 27.4192 10.3769 26.7399 9.96972" fill="#F0F2F9"/>
<path d="M13.6263 9.99704C13.2331 9.80353 12.7996 9.70162 12.3595 9.69926C11.9195 9.69691 11.4848 9.79417 11.0895 9.98346C10.3825 10.3907 10.3964 11.0558 11.0895 11.4631C11.4934 11.6634 11.9398 11.7678 12.3926 11.7678C12.8453 11.7678 13.2917 11.6634 13.6956 11.4631C14.4026 11.0558 14.3888 10.4043 13.6956 9.98346" fill="#F0F2F9"/>
<path d="M20.1693 13.6349C19.7654 13.4345 19.319 13.3301 18.8662 13.3301C18.4134 13.3301 17.967 13.4345 17.5631 13.6349C16.8562 14.0421 16.87 14.7072 17.5631 15.1145C17.967 15.3148 18.4134 15.4192 18.8662 15.4192C19.319 15.4192 19.7654 15.3148 20.1693 15.1145C20.8762 14.7072 20.8624 14.0557 20.1693 13.6349Z" fill="#F0F2F9"/>
<path d="M13.2935 21.6028C12.5588 21.1955 11.9766 21.5213 11.9766 22.3086C12.003 22.7476 12.1348 23.1742 12.3612 23.554C12.5876 23.9337 12.9022 24.2558 13.2796 24.4941C14.0143 24.9149 14.5966 24.5891 14.5966 23.7882C14.5791 23.3454 14.4513 22.9134 14.2241 22.5301C13.997 22.1468 13.6775 21.8237 13.2935 21.5892" fill="#F0F2F9"/>
<path d="M5.6138 26.0004C4.89296 25.5932 4.29688 25.9054 4.29688 26.7199C4.318 27.1616 4.44902 27.5916 4.67853 27.9725C4.90805 28.3534 5.22911 28.6736 5.6138 28.9053C6.34851 29.3261 7.00004 29.0003 7.00004 28.1995C6.96441 27.7513 6.82004 27.318 6.57893 26.9355C6.33782 26.553 6.00694 26.2324 5.6138 26.0004Z" fill="#F0F2F9"/>
</g>
<defs>
<clipPath id="clip0_503_442">
<rect width="36.6383" height="41" fill="white"/>
</clipPath>
</defs>
</svg>
