<svg width="22" height="30" viewBox="0 0 22 30" fill="none" xmlns="http://www.w3.org/2000/svg">
<path d="M10.9875 26.9763L0 21.0327L0.482785 20.6354L10.6879 26.1181L10.7378 15.0415L0.141506 9.24886C0.115661 9.23035 0.0946842 9.20636 0.0802365 9.17878C0.0657888 9.15119 0.0582671 9.12078 0.0582671 9.08994C0.0582671 9.0591 0.0657888 9.02868 0.0802365 9.0011C0.0946842 8.97352 0.115661 8.94952 0.141506 8.93102L10.8793 3.03511C10.915 3.01222 10.957 3 11 3C11.043 3 11.085 3.01222 11.1207 3.03511L22 8.99459L21.3591 9.31243L11.0042 3.75025L1.14869 9.11378L11.2788 14.6124C11.3156 14.6354 11.3452 14.6675 11.3642 14.7053C11.3833 14.7431 11.3912 14.7851 11.3871 14.8269V26.7856C11.376 26.8244 11.3564 26.8606 11.3297 26.8917C11.303 26.9228 11.2697 26.9482 11.232 26.9662C11.1942 26.9842 11.153 26.9944 11.1109 26.9962C11.0687 26.9979 11.0267 26.9911 10.9875 26.9763Z" fill="#F0F2F9"/>
<path d="M12.0114 15.1131V20.2382L16.8059 17.767V12.5148L12.0114 15.1131Z" fill="#F0F2F9"/>
<path d="M17.4302 12.1016L17.4052 17.4254L21.9001 14.97L21.9168 9.72571L17.4302 12.1016Z" fill="#F0F2F9"/>
<path d="M12.0114 20.9136V26.1182L16.8059 23.5198V18.4185L12.0114 20.9136Z" fill="#F0F2F9"/>
<path d="M17.4052 18.1006V23.1622L21.9001 20.7149V15.693L17.4052 18.1006Z" fill="#F0F2F9"/>
<path d="M11.3538 26.7856C11.3485 26.8241 11.3338 26.8609 11.3108 26.8929C11.2878 26.9249 11.2572 26.9513 11.2215 26.9699C11.1858 26.9885 11.146 26.9988 11.1053 26.9999C11.0646 27.001 11.0243 26.9929 10.9875 26.9763L0 21.0327" fill="#F0F2F9"/>
<path d="M12.1362 6.66651C11.8937 6.54922 11.6257 6.48811 11.3538 6.48811C11.0819 6.48811 10.8139 6.54922 10.5713 6.66651C10.1468 6.90489 10.1635 7.29424 10.5713 7.53262C10.8124 7.64984 11.0791 7.71094 11.3496 7.71094C11.6202 7.71094 11.8868 7.64984 12.1279 7.53262C12.5607 7.29424 12.5441 6.91284 12.1279 6.67446" fill="#F0F2F9"/>
<path d="M16.0568 8.82777C15.8143 8.71049 15.5462 8.64937 15.2744 8.64937C15.0025 8.64937 14.7344 8.71049 14.4919 8.82777C14.0757 9.06615 14.084 9.45551 14.4919 9.69388C14.7344 9.81117 15.0025 9.87229 15.2744 9.87229C15.5462 9.87229 15.8143 9.81117 16.0568 9.69388C16.4813 9.45551 16.4647 9.0741 16.0568 8.83572" fill="#F0F2F9"/>
<path d="M8.18239 8.85156C7.94629 8.73829 7.68596 8.67863 7.42173 8.67726C7.15749 8.67588 6.8965 8.73281 6.65912 8.84362C6.2346 9.082 6.24292 9.47135 6.65912 9.70973C6.90164 9.82701 7.16969 9.88813 7.44156 9.88813C7.71343 9.88813 7.98148 9.82701 8.22401 9.70973C8.64852 9.47135 8.6402 9.08994 8.22401 8.84362" fill="#F0F2F9"/>
<path d="M12.1112 10.9812C11.8687 10.8639 11.6007 10.8028 11.3288 10.8028C11.0569 10.8028 10.7889 10.8639 10.5463 10.9812C10.1218 11.2195 10.1301 11.6089 10.5463 11.8473C10.7889 11.9646 11.0569 12.0257 11.3288 12.0257C11.6007 12.0257 11.8687 11.9646 12.1112 11.8473C12.5357 11.6089 12.5274 11.2275 12.1112 10.9812Z" fill="#F0F2F9"/>
<path d="M7.98257 15.6454C7.5414 15.4071 7.1918 15.5978 7.1918 16.0586C7.20767 16.3156 7.28679 16.5653 7.42274 16.7876C7.55869 17.0099 7.74764 17.1984 7.97425 17.3379C8.41541 17.5843 8.76501 17.3936 8.76501 16.9247C8.75456 16.6655 8.67779 16.4127 8.5414 16.1883C8.40501 15.9639 8.21315 15.7748 7.98257 15.6375" fill="#F0F2F9"/>
<path d="M3.37114 18.2199C2.9383 17.9816 2.58037 18.1643 2.58037 18.6411C2.59306 18.8997 2.67173 19.1514 2.80955 19.3743C2.94736 19.5973 3.14015 19.7847 3.37114 19.9204C3.81231 20.1667 4.20353 19.976 4.20353 19.5072C4.18214 19.2449 4.09545 18.9912 3.95067 18.7673C3.80589 18.5434 3.60721 18.3558 3.37114 18.2199Z" fill="#F0F2F9"/>
<path d="M4 27L18 2.7513" stroke="#F0F2F9" stroke-width="2" stroke-linecap="square"/>
</svg>
