<svg width="24" height="24" viewBox="0 0 24 24" fill="none" xmlns="http://www.w3.org/2000/svg">
<path d="M0 4C0 1.79086 1.79086 0 4 0H20C22.2091 0 24 1.79086 24 4V20C24 22.2091 22.2091 24 20 24H4C1.79086 24 0 22.2091 0 20V4Z" fill="#111D2E"/>
<path d="M11.99 21.9832L3.24817 17.0295L3.63228 16.6984L11.7516 21.268L11.7913 12.036L3.36075 7.20815C3.34019 7.19273 3.3235 7.17273 3.31201 7.14974C3.30051 7.12675 3.29453 7.1014 3.29453 7.0757C3.29453 7.05 3.30051 7.02465 3.31201 7.00166C3.3235 6.97867 3.34019 6.95867 3.36075 6.94325L11.9039 2.02926C11.9323 2.01019 11.9658 2 12 2C12.0342 2 12.0676 2.01019 12.096 2.02926L20.7518 6.99623L20.2418 7.26113L12.0033 2.6253L4.16209 7.09557L12.2218 11.6784C12.2511 11.6976 12.2746 11.7243 12.2898 11.7558C12.3049 11.7874 12.3112 11.8224 12.3079 11.8572V21.8243C12.2991 21.8566 12.2835 21.8868 12.2623 21.9127C12.241 21.9387 12.2145 21.9598 12.1845 21.9748C12.1545 21.9898 12.1217 21.9983 12.0882 21.9998C12.0547 22.0012 12.0212 21.9956 11.99 21.9832Z" fill="url(#paint0_linear_1158_825)"/>
<path d="M12.8048 12.0956V16.3672L16.6194 14.3076V9.93005L12.8048 12.0956Z" fill="url(#paint1_linear_1158_825)"/>
<path d="M17.1159 9.58567L17.0961 14.0228L20.6723 11.9764L20.6855 7.60551L17.1159 9.58567Z" fill="url(#paint2_linear_1158_825)"/>
<path d="M12.8048 16.9302V21.268L16.6194 19.1024V14.8507L12.8048 16.9302Z" fill="url(#paint3_linear_1158_825)"/>
<path d="M17.0961 14.5858V18.8044L20.6723 16.7646V12.5791L17.0961 14.5858Z" fill="url(#paint4_linear_1158_825)"/>
<mask id="mask0_1158_825" style="mask-type:luminance" maskUnits="userSpaceOnUse" x="7" y="4" width="10" height="6">
<path d="M7.90393 7.22802L12.2749 4.68493L16.659 7.21478L12.2815 9.75786L7.90393 7.22802Z" fill="white"/>
</mask>
<g mask="url(#mask0_1158_825)">
<path d="M12.9041 5.04918C12.7107 4.95294 12.4976 4.90285 12.2815 4.90285C12.0655 4.90285 11.8524 4.95294 11.659 5.04918C11.3213 5.24786 11.3345 5.57237 11.659 5.77104C11.852 5.8688 12.0652 5.91974 12.2815 5.91974C12.4978 5.91974 12.7111 5.8688 12.9041 5.77104C13.2352 5.57237 13.2352 5.24786 12.9041 5.04918Z" fill="#F0F2F9"/>
<path d="M16.0231 6.85053C15.8309 6.75437 15.6189 6.7043 15.4039 6.7043C15.189 6.7043 14.977 6.75437 14.7847 6.85053C14.4403 7.04921 14.4536 7.37372 14.7847 7.5724C14.9777 7.67015 15.1909 7.72109 15.4072 7.72109C15.6235 7.72109 15.8368 7.67015 16.0298 7.5724C16.3675 7.37372 16.3609 7.04921 16.0298 6.85053" fill="#F0F2F9"/>
<path d="M9.75826 6.87702C9.57013 6.78359 9.36312 6.73441 9.15306 6.73326C8.943 6.73212 8.73547 6.77902 8.54632 6.8704C8.21519 7.06908 8.21519 7.39359 8.54632 7.59227C8.73973 7.68851 8.95282 7.73859 9.16885 7.73859C9.38488 7.73859 9.59797 7.68851 9.79137 7.59227C10.1291 7.39359 10.1159 7.06908 9.79137 6.8704" fill="#F0F2F9"/>
<path d="M12.8773 8.65188C12.6855 8.55419 12.4734 8.50326 12.2581 8.50326C12.0429 8.50326 11.8307 8.55419 11.6389 8.65188C11.3011 8.85056 11.3078 9.17507 11.6389 9.37375C11.8323 9.46999 12.0454 9.52008 12.2614 9.52008C12.4775 9.52008 12.6905 9.46999 12.884 9.37375C13.2217 9.17507 13.2151 8.85056 12.884 8.65188" fill="#F0F2F9"/>
</g>
<mask id="mask1_1158_825" style="mask-type:luminance" maskUnits="userSpaceOnUse" x="5" y="10" width="6" height="9">
<path d="M5.30115 15.7447L5.31439 10.0691L10.2284 12.9036L10.2085 18.5792L5.30115 15.7447Z" fill="white"/>
</mask>
<g mask="url(#mask1_1158_825)">
<path d="M9.59924 12.5394C9.24824 12.3407 8.97009 12.493 8.97009 12.8904C8.98373 13.1034 9.04716 13.3102 9.15528 13.4942C9.2634 13.6783 9.4132 13.8344 9.59262 13.95C9.94362 14.1553 10.2218 13.9963 10.2218 13.6056C10.2135 13.3895 10.1524 13.1788 10.0439 12.9918C9.93534 12.8048 9.78269 12.6472 9.59924 12.5327" fill="#F0F2F9"/>
<path d="M5.9303 14.6851C5.58592 14.4864 5.30115 14.6387 5.30115 15.0361C5.31451 15.2508 5.37847 15.4594 5.48781 15.6447C5.59715 15.83 5.74878 15.9868 5.9303 16.1023C6.27467 16.3076 6.59256 16.1487 6.59256 15.758C6.57554 15.5393 6.50657 15.3279 6.39138 15.1413C6.27619 14.9547 6.11811 14.7983 5.9303 14.6851Z" fill="#F0F2F9"/>
</g>
<defs>
<linearGradient id="paint0_linear_1158_825" x1="11.9967" y1="21.9832" x2="11.9967" y2="2.02926" gradientUnits="userSpaceOnUse">
<stop stop-color="#FF59BF"/>
<stop offset="0.01" stop-color="#F95CC0"/>
<stop offset="0.09" stop-color="#CC6FC6"/>
<stop offset="0.18" stop-color="#A57FCC"/>
<stop offset="0.28" stop-color="#848ED1"/>
<stop offset="0.38" stop-color="#6A99D5"/>
<stop offset="0.49" stop-color="#55A2D8"/>
<stop offset="0.62" stop-color="#46A8DA"/>
<stop offset="0.76" stop-color="#3EACDC"/>
<stop offset="1" stop-color="#3BADDC"/>
</linearGradient>
<linearGradient id="paint1_linear_1158_825" x1="14.7121" y1="16.3672" x2="14.7121" y2="9.92343" gradientUnits="userSpaceOnUse">
<stop offset="0.34" stop-color="#5F76B2"/>
<stop offset="0.54" stop-color="#518CC3"/>
<stop offset="0.83" stop-color="#41A4D5"/>
<stop offset="1" stop-color="#3BADDC"/>
</linearGradient>
<linearGradient id="paint2_linear_1158_825" x1="18.8908" y1="14.0228" x2="18.8908" y2="7.60551" gradientUnits="userSpaceOnUse">
<stop offset="0.27" stop-color="#5F76B2"/>
<stop offset="0.63" stop-color="#4C93C8"/>
<stop offset="1" stop-color="#3BADDC"/>
</linearGradient>
<linearGradient id="paint3_linear_1158_825" x1="14.7121" y1="21.268" x2="14.7121" y2="14.8507" gradientUnits="userSpaceOnUse">
<stop stop-color="#FF59BF"/>
<stop offset="0.13" stop-color="#E05EBC"/>
<stop offset="0.32" stop-color="#B565B8"/>
<stop offset="0.51" stop-color="#946BB4"/>
<stop offset="0.69" stop-color="#7C6FB2"/>
<stop offset="0.86" stop-color="#6E71B0"/>
<stop offset="1" stop-color="#6972B0"/>
</linearGradient>
<linearGradient id="paint4_linear_1158_825" x1="18.8842" y1="18.8044" x2="18.8842" y2="12.5791" gradientUnits="userSpaceOnUse">
<stop stop-color="#FF59BF"/>
<stop offset="0.16" stop-color="#D660BB"/>
<stop offset="0.34" stop-color="#AF66B7"/>
<stop offset="0.51" stop-color="#906BB4"/>
<stop offset="0.68" stop-color="#7B6FB2"/>
<stop offset="0.85" stop-color="#6D71B0"/>
<stop offset="1" stop-color="#6972B0"/>
</linearGradient>
</defs>
</svg>
